<svg xmlns="http://www.w3.org/2000/svg" width="76.869" height="102.944" viewBox="0 0 76.869 102.944"><defs><style>.a{fill:#8ac64c;stroke:#8ac64c;}</style></defs><g transform="translate(0.503 0.5)"><path class="a" d="M-337.7-48.516a5.869,5.869,0,0,1,3.4,3.491,119.1,119.1,0,0,0,9.7,17.085c.314.468.642.926.945,1.4.614.96.5,1.837-.288,2.34a1.558,1.558,0,0,1-2.2-.645c-1.144-1.705-2.368-3.369-3.37-5.156-2.637-4.7-5.181-9.456-7.74-14.2-.339-.628-.6-1.312-1.439-1.311s-1.13.668-1.431,1.318a146.664,146.664,0,0,1-23.41,35.1c-4.221,4.81-7.5,10.05-9.058,16.321a34.909,34.909,0,0,0,26.82,42.4c19.227,3.839,37.433-8.12,41.245-27.272,2.222-11.163-.6-21.111-7.927-29.815-3.115-3.7-6.154-7.468-9.226-11.205-.481-.585-.766-1.289-.222-1.889a2.615,2.615,0,0,1,1.511-.665c.3-.04.735.292.968.574,3.754,4.55,7.635,9.006,11.187,13.711a35.926,35.926,0,0,1,7.286,25.87c-1.575,16.094-13,30.506-30.431,33.745-21.585,4.012-40.515-9.633-44.488-30.12-2.416-12.461,1.071-23.359,9.391-32.83,8.913-10.146,16.763-21.025,22.686-33.218a16.778,16.778,0,0,0,.719-1.527,5.442,5.442,0,0,1,3.389-3.5Z" transform="translate(376.628 48.516)"/><path class="a" d="M-268.585,94.957c-1.268,2.263-2.4,4.391-3.633,6.461a4.731,4.731,0,0,1-8.157.121,4.405,4.405,0,0,1-.17-4.634c1.875-3.426,3.7-6.885,5.732-10.217a7.352,7.352,0,0,1,12.533.067c1.012,1.63,1.886,3.345,2.879,4.988a1.419,1.419,0,0,0,.954.621,4.8,4.8,0,0,1,4.752,5.692c-.2,1.641-.462,3.278-.767,4.9a4.632,4.632,0,0,1-5.877,3.58,46.81,46.81,0,0,1-5.449-2.125,4.535,4.535,0,0,1-2.136-6.156,2.021,2.021,0,0,0-.144-2.475C-268.224,95.576-268.345,95.343-268.585,94.957Zm0-8.707a4.524,4.524,0,0,0-3.965,2.473q-2.1,3.773-4.208,7.542c-.387.694-.808,1.372-1.14,2.091a1.423,1.423,0,0,0,.377,1.884,2.629,2.629,0,0,0,1.8.366c.445-.1.865-.685,1.132-1.149,1.533-2.668,3.007-5.37,4.523-8.048.835-1.475,2.12-1.471,2.974,0q1.445,2.49,2.843,5.007a1.54,1.54,0,0,1-.375,2.35c-1.182,1.076-1,2.469.458,3.085,1.43.606,2.883,1.161,4.341,1.694a1.651,1.651,0,0,0,2.418-1.379c.288-1.561.539-3.13.742-4.7a1.719,1.719,0,0,0-2.254-1.94c-1.37.336-1.732.191-2.417-1.01-1.131-1.983-2.249-3.974-3.383-5.956A4.384,4.384,0,0,0-268.583,86.249Z" transform="translate(306.51 -48.198)"/><path class="a" d="M-222.257,187.459c-.964-1.72-1.9-3.316-2.765-4.946a4.737,4.737,0,0,1,3.33-7.039,4.553,4.553,0,0,1,4.722,2.054c1.759,2.994,3.555,5.98,5.073,9.1a7.331,7.331,0,0,1-6.614,10.421c-1.657.012-3.314.021-4.97-.009a1.049,1.049,0,0,0-1.083.617,4.7,4.7,0,0,1-7.166,1.356c-1.23-.954-2.451-1.919-3.653-2.908a4.721,4.721,0,0,1-.012-7.558q1.765-1.451,3.568-2.856a4.738,4.738,0,0,1,7.322,1.334C-224.126,187.629-224.042,187.647-222.257,187.459Zm.224,6.613v-.007c1.159,0,2.321.046,3.477-.009a4.346,4.346,0,0,0,3.855-6.315c-1.464-2.851-3.092-5.619-4.688-8.4a1.7,1.7,0,0,0-2.4-.649,1.716,1.716,0,0,0-.51,2.5c1.261,2.288,2.563,4.553,3.824,6.841.789,1.432.184,2.508-1.456,2.549-1.754.044-3.511.015-5.266.008a1.678,1.678,0,0,1-1.8-1.487,1.685,1.685,0,0,0-2.893-1.084q-1.78,1.35-3.5,2.778a1.745,1.745,0,0,0-.013,3.008c1.117.934,2.259,1.841,3.412,2.73,1.354,1.043,2.593.586,3.014-1.1a1.594,1.594,0,0,1,1.769-1.375C-224.153,194.1-223.092,194.072-222.032,194.072Z" transform="translate(274.32 -115.873)"/><path class="a" d="M-317.549,177.242c2.084,0,4.068-.028,6.051.007a4.761,4.761,0,0,1,4.634,3.645,4.706,4.706,0,0,1-2.367,5.3c-1.745.926-3.63.573-5.458.458a1.256,1.256,0,0,1-1.01-1.5,1.362,1.362,0,0,1,1.335-1.355c.859-.053,1.723,0,2.584-.02,1.249-.024,1.99-.67,2.006-1.723.016-1.073-.69-1.73-1.956-1.74-2.618-.019-5.237,0-7.855-.01-2.092-.009-2.672-1.03-1.639-2.861.748-1.326,1.493-2.653,2.252-3.972a1.6,1.6,0,0,1,2.2-.943c1.524.4,2.509-.373,2.353-1.949s-.395-3.152-.683-4.712a1.7,1.7,0,0,0-2.41-1.337c-1.525.543-3.037,1.131-4.518,1.781a1.716,1.716,0,0,0-.4,2.945c1.006.926,1.083,1.326.432,2.487-.955,1.7-1.932,3.394-2.885,5.1-1.836,3.284-.147,6.54,3.589,6.935,1.017.107,1.561.679,1.51,1.589a1.456,1.456,0,0,1-1.608,1.39c-5.314.134-8.954-5.872-6.475-10.733.766-1.5,1.635-2.952,2.491-4.406a1.05,1.05,0,0,0-.009-1.241,4.66,4.66,0,0,1,2.319-6.9c1.465-.61,2.938-1.2,4.424-1.757a4.77,4.77,0,0,1,6.6,4.063c.194,1.576.476,3.14.669,4.716a4.7,4.7,0,0,1-4.166,5.136C-316.891,175.757-316.891,175.757-317.549,177.242Z" transform="translate(341.406 -105.574)"/></g></svg>