<svg xmlns="http://www.w3.org/2000/svg" width="101.51" height="101.569" viewBox="0 0 101.51 101.569"><defs><style>.a{fill:#8ac64c;}</style></defs><path class="a" d="M-730.8,345.349a16.092,16.092,0,0,1-2.282-.534,40.557,40.557,0,0,1-5.257-2.231c-6.563-3.675-13.1-7.392-19.573-11.229-2.534-1.5-4.971-1.147-7.505-.324a1.059,1.059,0,0,0-.492.635,6.089,6.089,0,0,1-4.443,4.121q-5.391,1.452-10.79,2.874c-1.617.427-2.553-.1-2.982-1.7q-4-14.938-7.991-29.88c-.387-1.449.045-2.41,1.4-2.792q5.8-1.629,11.642-3.127a5.547,5.547,0,0,1,5.17,1.3,1.329,1.329,0,0,0,1.41.278c4.991-1.352,9.995-2.661,14.986-4.014a10.662,10.662,0,0,1,8.474,1.127q13.532,7.838,27.086,15.637a8.2,8.2,0,0,1,4.335,8.861c.324-.047.575-.062.815-.122,5.4-1.36,10.788-2.752,16.193-4.081a7.843,7.843,0,0,1,9.615,5.743,5.837,5.837,0,0,0,.244.62v2.38c-.04.051-.107.1-.117.154-.65,3.484-2.837,5.512-6.116,6.569q-15.035,4.848-30.057,9.736Zm-35.427-18.342c.227-.032.357-.045.486-.068a3.888,3.888,0,0,0,.484-.1,11.623,11.623,0,0,1,9.845,1.351c6.389,3.778,12.872,7.4,19.3,11.1,3.385,1.95,7.009,2.766,10.747,1.562,9.313-3,18.57-6.17,27.837-9.309a3.887,3.887,0,0,0,2.6-4.964,3.941,3.941,0,0,0-4.924-2.537q-7.377,1.868-14.749,3.756a52.361,52.361,0,0,0-7.044,1.914,8.805,8.805,0,0,1-8.4-.526c-5.177-3.043-10.395-6.015-15.594-9.02a9.61,9.61,0,0,1-1.089-.682,2,2,0,0,1-.6-2.478,1.971,1.971,0,0,1,2.451-.943,6.461,6.461,0,0,1,1.056.537q7.974,4.6,15.939,9.213a4.342,4.342,0,0,0,3.684.568,3.717,3.717,0,0,0,2.682-3.351,3.874,3.874,0,0,0-2.166-3.916q-13.8-7.97-27.6-15.946a6.579,6.579,0,0,0-5.25-.59c-4.768,1.3-9.542,2.571-14.313,3.857-.274.074-.541.171-.832.264ZM-780.167,305.6c.761,2.849,1.505,5.645,2.255,8.44.409,1.526.85,3.045,1.235,4.577.38,1.51-.316,2.664-1.647,2.817-1.063.122-1.875-.52-2.227-1.806-.547-2-1.069-4.009-1.607-6.012-.621-2.31-1.249-4.618-1.892-6.994-1.014.272-1.92.571-2.851.748-.786.15-.9.448-.691,1.214,1.747,6.384,3.443,12.781,5.154,19.175.584,2.183,1.167,4.366,1.784,6.67,3.337-.923,6.581-1.774,9.79-2.737a1.811,1.811,0,0,0,1.088-2.439q-3-11.264-6.032-22.519a2.006,2.006,0,0,0-2.61-1.623C-778.991,305.219-779.548,305.419-780.167,305.6Z" transform="translate(792.247 -243.78)"/><path class="a" d="M-515.538,119.84q-.282,1.3-.563,2.594c-1.922,8.914-9.482,16.5-18.728,17.466a20.73,20.73,0,0,1-18.9-7.631,22.379,22.379,0,0,1-5.427-15.326A19.518,19.518,0,0,1-556.2,106.7c5.623-8.941,11.32-17.836,17.005-26.739,1.022-1.6,2.649-1.616,3.663-.029q8.556,13.394,17.062,26.82a19.069,19.069,0,0,1,2.74,7.983,2.559,2.559,0,0,0,.191.539Zm-21.775-35.274c-.189.226-.282.315-.35.422q-7.291,11.436-14.578,22.874a17.334,17.334,0,0,0-2.919,9.711,18.36,18.36,0,0,0,6.255,13.94,16.546,16.546,0,0,0,17.215,3.548,16.952,16.952,0,0,0,9.695-8.31c3.153-5.82,3.563-11.846.173-17.644-3.628-6.205-7.64-12.187-11.489-18.263C-534.614,88.784-535.93,86.734-537.312,84.566Z" transform="translate(617.047 -78.755)"/><path class="a" d="M-734.591,410.327a1.875,1.875,0,0,1-1.947-1.995,1.937,1.937,0,0,1,1.944-1.935,2.049,2.049,0,0,1,1.987,2.03A1.982,1.982,0,0,1-734.591,410.327Z" transform="translate(750.375 -325.02)"/><path class="a" d="M-463.468,208.611c.018,8.069-5.377,14.283-12.475,15.228a7.929,7.929,0,0,1-1.384.04,1.971,1.971,0,0,1-1.986-1.929,1.919,1.919,0,0,1,1.9-2,10.116,10.116,0,0,0,6.647-2.879,10.342,10.342,0,0,0,1.97-12.592c-.892-1.591-.766-2.729.374-3.364s2.2-.165,3.093,1.381A13.315,13.315,0,0,1-463.468,208.611Z" transform="translate(557.037 -170.512)"/></svg>