<svg xmlns="http://www.w3.org/2000/svg" width="101.887" height="101.894" viewBox="0 0 101.887 101.894"><defs><style>.a{fill:#8ac64c;}</style></defs><path class="a" d="M-605.658-15.392A34.892,34.892,0,0,1-639.9-43.8a33.469,33.469,0,0,1-.423-9.848c.232-2.132,2.045-3.1,3.856-1.968a6.919,6.919,0,0,0,5.756,1.118,16.948,16.948,0,0,0,3.259-1.54,11.791,11.791,0,0,1,10.314-.611,13.911,13.911,0,0,1,2.219,1.191,6.866,6.866,0,0,0,7.792-.029,12.392,12.392,0,0,1,6.853-2.044,12.481,12.481,0,0,1,6.813,2.185,6.386,6.386,0,0,0,5.419.824,17.063,17.063,0,0,0,3.155-1.54,11.728,11.728,0,0,1,10.22-.6,17.145,17.145,0,0,1,2.395,1.288c1.12.652,1.22,1.78,1.281,2.906a33.418,33.418,0,0,1-2.866,16.136c-5.464,11.751-14.654,18.639-27.474,20.616C-602.757-15.5-604.215-15.5-605.658-15.392Zm-29.984-34.444A29.586,29.586,0,0,0-633.25-38.65a1.12,1.12,0,0,0,.819.52A7.488,7.488,0,0,0-628.5-39.2a19.317,19.317,0,0,1,4.417-1.879A11.564,11.564,0,0,1-614.76-39.2a6.346,6.346,0,0,0,5.41.87,14.845,14.845,0,0,0,2.988-1.422c4.022-2.2,8.094-2.3,11.99.1,3.141,1.93,6.06,2.062,9.128,0A11.022,11.022,0,0,1-578-41.3c.631.05.873-.14,1.04-.749a32.668,32.668,0,0,0,1.156-8.979,1.1,1.1,0,0,0-.837-1.181,7.05,7.05,0,0,0-5.941.454,19.949,19.949,0,0,1-3.889,1.868A11.894,11.894,0,0,1-596.6-51.5a6.748,6.748,0,0,0-7.613-.028,15.217,15.217,0,0,1-2.97,1.476,11.894,11.894,0,0,1-10.611-1.415,6.643,6.643,0,0,0-7.689-.025A12.5,12.5,0,0,1-635.642-49.836ZM-630.29-33.1c6.957,9.15,16.148,13.739,27.763,12.539,10.474-1.083,18.143-6.66,23.383-15.885a6.687,6.687,0,0,0-4.049,1.235,11.988,11.988,0,0,1-6.668,1.974,12.8,12.8,0,0,1-6.825-2.151,6.768,6.768,0,0,0-7.443-.019,16.369,16.369,0,0,1-3.056,1.527,11.586,11.586,0,0,1-10.34-1.275,7.215,7.215,0,0,0-8.33,0A41.209,41.209,0,0,1-630.29-33.1Z" transform="translate(656.639 101.182)"/><path class="a" d="M-680.873-195.115c-1.162-.461-2.134-.827-3.092-1.23a2.445,2.445,0,0,1-1.584-3.233,2.456,2.456,0,0,1,3.434-1.3c2.533.995,5.056,2.017,7.581,3.031a2.563,2.563,0,0,1,1.764,2.647c-.036,2.527,0,5.054-.013,7.581a2.408,2.408,0,0,1-2.409,2.651,2.41,2.41,0,0,1-2.432-2.63c-.009-1.176,0-2.353,0-3.654a4.733,4.733,0,0,0-.64.365c-9.134,7.524-14.884,17.081-16.537,28.812-2.4,17.027,3.112,31.259,16.109,42.463a43.539,43.539,0,0,0,23.918,10.3c1.7.2,3.42.3,5.133.373,1.7.077,2.739.963,2.737,2.437a2.413,2.413,0,0,1-2.743,2.416,50.129,50.129,0,0,1-35.522-14.755,48.235,48.235,0,0,1-14.376-27.749c-2.762-18.268,2.751-33.8,16.269-46.437C-682.547-193.71-681.769-194.34-680.873-195.115Z" transform="translate(700.238 205.979)"/><path class="a" d="M-486.7-128.077c1.133.453,2.1.822,3.059,1.228,1.522.647,2.1,1.865,1.561,3.223a2.4,2.4,0,0,1-3.415,1.3c-2.564-1.007-5.119-2.04-7.672-3.075a2.456,2.456,0,0,1-1.665-2.5c.022-2.594,0-5.189.01-7.784a2.387,2.387,0,0,1,2.41-2.546,2.392,2.392,0,0,1,2.428,2.528c.018,1.179.015,2.358.022,3.537a1.617,1.617,0,0,0,.059.219c.262-.177.508-.312.72-.488a45.4,45.4,0,0,0,16.55-29.477,46.056,46.056,0,0,0-35.918-51.266,88.156,88.156,0,0,0-9.813-1.086,2.5,2.5,0,0,1-2.324-2.02,2.407,2.407,0,0,1,1.627-2.7,3.988,3.988,0,0,1,1.192-.127,50.9,50.9,0,0,1,47.479,33.528,50.983,50.983,0,0,1-15.537,56.792C-486.156-128.6-486.363-128.39-486.7-128.077Z" transform="translate(569.2 219.106)"/><path class="a" d="M-554.036-157.927a7.237,7.237,0,0,1-7.24,7.259,7.243,7.243,0,0,1-7.308-7.3,7.229,7.229,0,0,1,7.343-7.254A7.231,7.231,0,0,1-554.036-157.927Zm-4.854-.045a2.493,2.493,0,0,0-2.4-2.391,2.5,2.5,0,0,0-2.442,2.45,2.491,2.491,0,0,0,2.4,2.389A2.494,2.494,0,0,0-558.89-157.972Z" transform="translate(604.137 179.771)"/><path class="a" d="M-440.241-121.984a7.237,7.237,0,0,1-7.242,7.256,7.242,7.242,0,0,1-7.306-7.3,7.229,7.229,0,0,1,7.345-7.251A7.232,7.232,0,0,1-440.241-121.984Zm-7.3-2.439a2.5,2.5,0,0,0-2.393,2.5,2.5,2.5,0,0,0,2.447,2.341,2.493,2.493,0,0,0,2.392-2.5A2.5,2.5,0,0,0-447.542-124.423Z" transform="translate(521.073 153.537)"/><path class="a" d="M-482.885-141.876a2.4,2.4,0,0,1-2.372,2.47,2.4,2.4,0,0,1-2.468-2.374,2.4,2.4,0,0,1,2.373-2.467A2.4,2.4,0,0,1-482.885-141.876Z" transform="translate(545.115 164.464)"/><path class="a" d="M-605.106-115.446a2.4,2.4,0,0,1-2.4-2.441,2.4,2.4,0,0,1,2.439-2.4,2.394,2.394,0,0,1,2.4,2.438A2.4,2.4,0,0,1-605.106-115.446Z" transform="translate(632.55 146.974)"/><path class="a" d="M-536.787-81.894a2.4,2.4,0,0,1-2.453,2.388,2.4,2.4,0,0,1-2.387-2.455,2.4,2.4,0,0,1,2.454-2.386A2.394,2.394,0,0,1-536.787-81.894Z" transform="translate(584.46 120.739)"/></svg>